:SAMPLES-PER-SECOND 30
:FULLY-SPECIFIED
:DEGREES
261
root  38.3053 38.9127 -0.523791 -178.298 -47.3033 175.244
RightUpLeg  -15.864 -10.9375 -8.12677
RightLeg  32.1733 -3.25661 -2.45994
RightFoot  -11.1909 -0.0788032 2.00599
RightToes  5.82063e-011 0 -3.6325e-017
Spine  8.28998 -0.842591 1.02189
Spine1  7.60288 -0.395451 -3.34094
HEad  -5.41835 1.55836 -6.26083
LeftShoulder1  -0.18682 3.99785 -31.6837
LeftArm  -2.21565 8.65192 -40.5427
LeftForeArm  20.9792 -9.5844 -8.55172
LeftHand  -0.0372712 4.45526 1.82318
RightShoulder  -0.691681 -5.56076 26.958
RightArm  16.7903 -8.59934 47.67
RightForeArm  -1.05853 16.9716 5.60689
RightHand  -0.968469 5.42726 -10.6616
LeftUpLeg  1.02756 5.41569 -5.95509
LeftLeg  11.3681 2.5602 -1.00579
LeftFoot  -12.6861 0.135927 5.04839
LeftToes  1.81573e-012 2.54609e-010 -3.45981e-011
262
root  37.4346 38.8744 -1.11674 -178.704 -50.7408 175.37
RightUpLeg  -17.7336 -10.2886 -6.89554
RightLeg  25.8036 -1.93993 -1.24686
RightFoot  -10.5578 -0.0889734 2.54501
RightToes  5.82063e-011 0 -3.6325e-017
Spine  9.2312 -1.30231 0.290551
Spine1  7.56517 -1.04647 -2.39927
HEad  -6.65382 1.26831 -5.41811
LeftShoulder1  -0.185497 3.99286 -31.8015
LeftArm  -2.84928 9.20924 -41.3384
LeftForeArm  24.3048 -8.22644 -8.78527
LeftHand  -0.0430284 3.4779 1.57081
RightShoulder  -0.671247 -5.49573 27.0137
RightArm  17.4358 -9.77811 47.2132
RightForeArm  -1.57433 17.3617 5.57837
RightHand  -1.04579 6.1355 -10.8265
LeftUpLeg  3.4392 5.52973 -5.61754
LeftLeg  10.8712 -0.788836 -1.22679
LeftFoot  -13.4503 0.19285 6.08022
LeftToes  1.81573e-012 2.54609e-010 -3.45981e-011
263
root  36.4882 38.77 -1.74805 -179.095 -53.6525 175.308
RightUpLeg  -18.7025 -8.96608 -6.49373
RightLeg  17.9758 -1.02082 -0.551818
RightFoot  -9.48012 -0.11235 2.98732
RightToes  5.82063e-011 0 -3.6325e-017
Spine  9.88649 -1.68315 0.147113
Spine1  7.99929 -1.41556 -2.20041
HEad  -7.47128 1.10033 -5.04662
LeftShoulder1  -0.163929 3.93791 -31.6474
LeftArm  -3.08449 9.89389 -42.0265
LeftForeArm  26.5985 -7.59923 -8.88361
LeftHand  -0.0358181 3.17861 0.978497
RightShoulder  -0.666154 -5.48254 26.979
RightArm  19.0887 -10.2879 46.9733
RightForeArm  0.222738 17.3613 5.6576
RightHand  -0.871435 6.52651 -8.79996
LeftUpLeg  6.06404 5.83121 -5.14347
LeftLeg  10.5908 -3.89565 -1.53707
LeftFoot  -14.6084 0.276164 6.6012
LeftToes  1.81573e-012 2.54609e-010 -3.45981e-011
264
root  35.4486 38.6081 -2.4363 -179.325 -56.0665 174.879
RightUpLeg  -18.8108 -7.70518 -6.73397
RightLeg  9.41298 -0.819694 -0.401115
RightFoot  -7.99349 -0.173939 3.97852
RightToes  5.82063e-011 0 -3.6325e-017
Spine  10.2403 -1.86594 0.457785
Spine1  8.75356 -1.39084 -2.70381
HEad  -8.1135 0.352968 -4.37591
LeftShoulder1  -0.199593 4.03213 -31.6498
LeftArm  -2.71237 9.99012 -42.2218
LeftForeArm  27.839 -7.17338 -9.13672
LeftHand  -0.0264998 4.40752 0.327589
RightShoulder  -0.703111 -5.58345 27.1389
RightArm  21.0282 -10.733 46.6436
RightForeArm  1.00848 17.2798 5.85196
RightHand  -0.902967 6.30425 -9.27867
LeftUpLeg  8.87511 6.04237 -4.86013
LeftLeg  10.5346 -6.18201 -1.57934
LeftFoot  -15.8577 0.379384 7.18028
LeftToes  1.81573e-012 2.54609e-010 -3.45981e-011
265
root  34.3068 38.3866 -3.19418 -179.753 -58.2066 174.58
RightUpLeg  -18.4374 -7.6084 -6.82605
RightLeg  1.64178 -0.355422 -0.413649
RightFoot  -6.53106 -0.299111 6.09734
RightToes  5.82063e-011 0 -3.6325e-017
Spine  10.6945 -1.93624 1.05159
Spine1  9.01322 -1.26661 -3.14307
HEad  -7.95736 -0.332835 -4.24535
LeftShoulder1  -0.239719 4.13107 -32.0816
LeftArm  -2.8031 10.4591 -41.9569
LeftForeArm  28.3848 -6.9595 -9.12727
LeftHand  -0.023766 4.67307 -0.240316
RightShoulder  -0.744801 -5.69862 27.2817
RightArm  22.125 -11.2018 46.0223
RightForeArm  1.8075 16.7988 6.11071
RightHand  -0.980244 5.66624 -10.5646
LeftUpLeg  11.9126 6.56189 -4.15427
LeftLeg  10.7848 -8.52387 -1.77932
LeftFoot  -17.3137 0.525129 8.0475
LeftToes  1.81573e-012 2.54609e-010 -3.45981e-011
